<svg width="70" height="70" viewBox="0 0 70 70" fill="none" xmlns="http://www.w3.org/2000/svg">
<path d="M57.1374 19.5124C54.23 18.8731 51.5998 17.3291 49.6243 15.1021C47.6488 12.8751 46.4296 10.0795 46.1416 7.11659V5.83325H36.0791V45.7041C36.0811 47.4732 35.5265 49.1982 34.4937 50.6345C33.4609 52.0709 32.0024 53.146 30.3247 53.7074C28.647 54.2687 26.8352 54.288 25.1459 53.7625C23.4566 53.2369 21.9755 52.1932 20.9124 50.7791C19.96 49.5274 19.3768 48.0341 19.2287 46.4682C19.0807 44.9024 19.3737 43.3263 20.0747 41.9182C20.7757 40.5102 21.8566 39.3264 23.1953 38.5007C24.534 37.6749 26.0771 37.2403 27.6499 37.2458C28.5198 37.2408 29.3853 37.3686 30.2166 37.6249V27.4166C29.2492 27.2968 28.2744 27.248 27.2999 27.2708C23.7104 27.3667 20.2268 28.5072 17.2756 30.5528C14.3244 32.5983 12.0338 35.4601 10.6842 38.7876C9.33462 42.1151 8.98466 45.764 9.67719 49.2874C10.3697 52.8108 12.0747 56.0557 14.5833 58.6249C17.1543 61.2388 20.4443 63.0295 24.0353 63.7693C27.6263 64.5092 31.3562 64.1648 34.751 62.78C38.1459 61.3951 41.0524 59.0324 43.1013 55.9919C45.1503 52.9514 46.2491 49.3705 46.2583 45.7041V25.2874C50.3167 28.1864 55.1833 29.7372 60.1708 29.7207V19.8041C59.1911 19.8081 58.2136 19.7104 57.2541 19.5124H57.1374Z" fill="white"/>
</svg>
