<svg width="70" height="70" viewBox="0 0 70 70" fill="none" xmlns="http://www.w3.org/2000/svg">
<path fill-rule="evenodd" clip-rule="evenodd" d="M53.6754 16.4297C51.2498 13.9881 48.3638 12.0521 45.1846 10.7339C42.0054 9.41561 38.5962 8.74134 35.1546 8.75008C20.7229 8.75008 8.97458 20.4955 8.96875 34.933C8.96875 39.5472 10.1733 44.0505 12.4629 48.023L8.75 61.5884L22.6304 57.9455C26.4699 60.0356 30.7714 61.1315 35.1429 61.1334H35.1546C49.5833 61.1334 61.3317 49.388 61.3375 34.9505C61.3474 31.5102 60.6754 28.1021 59.3602 24.9232C58.0451 21.7442 56.1129 18.8574 53.6754 16.4297ZM35.1546 56.7147H35.1458C31.2478 56.7151 27.4214 55.6663 24.0683 53.6784L23.275 53.2059L15.0383 55.3672L17.2346 47.3376L16.7183 46.5151C14.539 43.0455 13.3853 39.0303 13.3904 34.933C13.3963 22.9338 23.1583 13.1718 35.1633 13.1718C38.0224 13.1654 40.8543 13.7262 43.4952 14.8216C46.1361 15.917 48.5336 17.5253 50.5487 19.5534C52.5747 21.5719 54.1806 23.9719 55.2734 26.6147C56.3663 29.2575 56.9245 32.0907 56.9158 34.9505C56.91 46.9497 47.1479 56.7147 35.1546 56.7147ZM47.0925 40.4134C46.4363 40.0838 43.2221 38.503 42.6213 38.2843C42.0233 38.0655 41.5888 37.9576 41.1513 38.6109C40.7138 39.2642 39.4596 40.7372 39.0775 41.1747C38.6954 41.6122 38.3133 41.6647 37.66 41.338C37.0067 41.0113 34.8979 40.3201 32.3983 38.0917C30.4529 36.3563 29.1404 34.2155 28.7583 33.5592C28.3762 32.903 28.7175 32.5501 29.0471 32.2234C29.3417 31.9317 29.7004 31.4592 30.0271 31.0772C30.3538 30.6951 30.4617 30.4238 30.6804 29.9863C30.8992 29.5488 30.7913 29.1667 30.625 28.8401C30.4617 28.5105 29.1521 25.2905 28.6067 23.9809C28.0787 22.7122 27.5392 22.8813 27.1367 22.8638C26.7198 22.8468 26.3026 22.839 25.8854 22.8405C25.5537 22.849 25.2272 22.9259 24.9266 23.0664C24.626 23.2069 24.3576 23.4081 24.1383 23.6572C23.5375 24.3134 21.8488 25.8943 21.8488 29.1143C21.8488 32.3342 24.1937 35.4463 24.5204 35.8838C24.8471 36.3213 29.1346 42.9276 35.6971 45.7626C37.2604 46.4363 38.4796 46.8388 39.4275 47.1422C40.9938 47.6409 42.42 47.568 43.5488 47.4017C44.8058 47.2151 47.4192 45.8209 47.9646 44.2926C48.51 42.7642 48.51 41.4547 48.3467 41.1805C48.1833 40.9063 47.7429 40.7401 47.0925 40.4134Z" fill="white"/>
</svg>
