<svg width="70" height="70" viewBox="0 0 70 70" fill="none" xmlns="http://www.w3.org/2000/svg">
<path d="M34.9972 21.5164C31.4203 21.5164 27.9899 22.9373 25.4607 25.4665C22.9314 27.9958 21.5105 31.4261 21.5105 35.003C21.5105 38.5799 22.9314 42.0103 25.4607 44.5395C27.9899 47.0688 31.4203 48.4897 34.9972 48.4897C38.574 48.4897 42.0044 47.0688 44.5337 44.5395C47.0629 42.0103 48.4838 38.5799 48.4838 35.003C48.4838 31.4261 47.0629 27.9958 44.5337 25.4665C42.0044 22.9373 38.574 21.5164 34.9972 21.5164ZM34.9972 43.7618C32.6734 43.7618 30.4449 42.8387 28.8017 41.1955C27.1586 39.5524 26.2355 37.3238 26.2355 35.0001C26.2355 32.6764 27.1586 30.4478 28.8017 28.8047C30.4449 27.1615 32.6734 26.2384 34.9972 26.2384C37.3209 26.2384 39.5495 27.1615 41.1926 28.8047C42.8357 30.4478 43.7588 32.6764 43.7588 35.0001C43.7588 37.3238 42.8357 39.5524 41.1926 41.1955C39.5495 42.8387 37.3209 43.7618 34.9972 43.7618Z" fill="white"/>
<path d="M49.0175 24.1646C50.7539 24.1646 52.1616 22.7569 52.1616 21.0204C52.1616 19.2839 50.7539 17.8762 49.0175 17.8762C47.281 17.8762 45.8733 19.2839 45.8733 21.0204C45.8733 22.7569 47.281 24.1646 49.0175 24.1646Z" fill="white"/>
<path d="M59.8879 17.8238C59.2127 16.0802 58.1809 14.4967 56.8585 13.1748C55.5361 11.8529 53.9523 10.8217 52.2084 10.1471C50.1677 9.38111 48.0118 8.96689 45.8325 8.92215C43.0238 8.79965 42.1342 8.76465 35.0117 8.76465C27.8892 8.76465 26.9763 8.76465 24.1909 8.92215C22.0132 8.96461 19.8589 9.3789 17.8209 10.1471C16.0765 10.8209 14.4923 11.8519 13.1698 13.1739C11.8472 14.4959 10.8157 16.0797 10.1413 17.8238C9.37508 19.8644 8.96182 22.0204 8.91919 24.1996C8.79378 27.0055 8.75586 27.8951 8.75586 35.0205C8.75586 42.143 8.75586 43.0501 8.91919 45.8413C8.96294 48.023 9.37419 50.1755 10.1413 52.2201C10.8176 53.9635 11.8501 55.5468 13.173 56.8686C14.4958 58.1904 16.0798 59.2217 17.8238 59.8967C19.858 60.6936 22.0132 61.1374 24.1967 61.2092C27.0054 61.3317 27.895 61.3696 35.0175 61.3696C42.14 61.3696 43.0529 61.3696 45.8384 61.2092C48.0174 61.1649 50.1732 60.7517 52.2142 59.9872C53.9576 59.311 55.541 58.2789 56.8633 56.9567C58.1855 55.6344 59.2177 54.051 59.8938 52.3076C60.6609 50.2659 61.0721 48.1134 61.1159 45.9317C61.2413 43.1259 61.2792 42.2363 61.2792 35.1109C61.2792 27.9855 61.2792 27.0813 61.1159 24.2901C61.0819 22.08 60.6665 19.8925 59.8879 17.8238ZM56.3354 45.6255C56.3166 47.3064 56.0098 48.9716 55.4284 50.5488C54.9904 51.683 54.3198 52.713 53.4598 53.5725C52.5998 54.4319 51.5695 55.1019 50.435 55.5392C48.8753 56.118 47.2277 56.4249 45.5642 56.4463C42.7934 56.5746 42.0117 56.6067 34.9067 56.6067C27.7959 56.6067 27.0696 56.6067 24.2463 56.4463C22.5836 56.426 20.9368 56.1191 19.3784 55.5392C18.2399 55.1046 17.2054 54.4358 16.3418 53.5762C15.4781 52.7166 14.8045 51.6852 14.3646 50.5488C13.7913 48.9885 13.4847 47.3429 13.4575 45.6809C13.3321 42.9101 13.3029 42.1284 13.3029 35.0234C13.3029 27.9155 13.3029 27.1892 13.4575 24.363C13.4764 22.683 13.7832 21.0188 14.3646 19.4426C15.2542 17.1413 17.0771 15.3301 19.3784 14.4492C20.9376 13.8721 22.5838 13.5654 24.2463 13.5421C27.02 13.4167 27.7988 13.3817 34.9067 13.3817C42.0146 13.3817 42.7438 13.3817 45.5642 13.5421C47.2279 13.5622 48.8757 13.869 50.435 14.4492C51.5694 14.8875 52.5996 15.5582 53.4595 16.4181C54.3194 17.278 54.9901 18.3082 55.4284 19.4426C56.0016 21.0028 56.3083 22.6484 56.3354 24.3105C56.4609 27.0842 56.4929 27.863 56.4929 34.9709C56.4929 42.0759 56.4929 42.8401 56.3675 45.6284H56.3354V45.6255Z" fill="white"/>
</svg>
